<svg width="48" height="48" viewBox="0 0 48 48" fill="none" xmlns="http://www.w3.org/2000/svg">
<g clip-path="url(#clip0_163_38)">
<path d="M16.7212 1.57874C11.9253 3.2425 7.78927 6.40037 4.9207 10.5885C2.05212 14.7766 0.602197 19.7743 0.783888 24.8474C0.965579 29.9204 2.76931 34.8016 5.93014 38.7738C9.09097 42.7459 13.4423 45.5998 18.345 46.9162C22.3197 47.9419 26.484 47.9869 30.48 47.0475C34.0999 46.2344 37.4467 44.4951 40.1925 42C43.0503 39.3238 45.1246 35.9193 46.1925 32.1525C47.3528 28.0562 47.5593 23.7485 46.7962 19.56H24.4762V28.8187H37.4025C37.1441 30.2954 36.5905 31.7049 35.7748 32.9626C34.9591 34.2204 33.8979 35.3006 32.655 36.1387C31.0767 37.1833 29.2973 37.8858 27.4312 38.2012C25.5598 38.5493 23.6402 38.5493 21.7687 38.2012C19.8718 37.8095 18.0774 37.0266 16.5 35.9025C13.9655 34.1084 12.0625 31.5597 11.0625 28.62C10.0458 25.6252 10.0458 22.3786 11.0625 19.3837C11.7743 17.2846 12.9511 15.3733 14.505 13.7925C16.2832 11.9503 18.5345 10.6335 21.0118 9.98653C23.4892 9.33958 26.0968 9.38748 28.5487 10.125C30.4642 10.7127 32.2158 11.74 33.6637 13.125C35.1212 11.675 36.5762 10.2212 38.0287 8.76374C38.7787 7.97999 39.5962 7.23374 40.335 6.43124C38.1245 4.37444 35.5299 2.77388 32.7 1.72124C27.5464 -0.150045 21.9074 -0.200334 16.7212 1.57874Z" fill="white"/>
<path d="M16.7213 1.57875C21.907 -0.201537 27.546 -0.152571 32.7 1.7175C35.5305 2.77729 38.1239 4.38555 40.3313 6.45C39.5813 7.2525 38.79 8.0025 38.025 8.7825C36.57 10.235 35.1163 11.6825 33.6638 13.125C32.2159 11.74 30.4643 10.7127 28.5488 10.125C26.0977 9.3849 23.4901 9.33423 21.0121 9.97853C18.5341 10.6228 16.2815 11.9372 14.5013 13.7775C12.9474 15.3583 11.7706 17.2696 11.0588 19.3687L3.28503 13.35C6.06757 7.8321 10.8853 3.61134 16.7213 1.57875Z" fill="#E33629"/>
<path d="M1.22256 19.3125C1.64008 17.2416 2.33378 15.2362 3.28506 13.35L11.0588 19.3838C10.0421 22.3786 10.0421 25.6252 11.0588 28.62C8.46881 30.62 5.87756 32.63 3.28506 34.65C0.904373 29.9112 0.178305 24.5119 1.22256 19.3125Z" fill="#F8BD00"/>
<path d="M24.4763 19.5562H46.7963C47.5594 23.7448 47.3528 28.0524 46.1925 32.1487C45.1247 35.9155 43.0503 39.32 40.1925 41.9962C37.6838 40.0387 35.1638 38.0962 32.655 36.1387C33.8988 35.2998 34.9604 34.2183 35.7762 32.9592C36.592 31.7001 37.1451 30.2893 37.4025 28.8112H24.4763C24.4725 25.7287 24.4763 22.6425 24.4763 19.5562Z" fill="#587DBD"/>
<path d="M3.28125 34.65C5.87375 32.65 8.465 30.64 11.055 28.62C12.057 31.5607 13.9628 34.1096 16.5 35.9025C18.0823 37.0214 19.8806 37.7979 21.78 38.1825C23.6515 38.5306 25.571 38.5306 27.4425 38.1825C29.3086 37.8671 31.088 37.1645 32.6662 36.12C35.175 38.0775 37.695 40.02 40.2037 41.9775C37.4583 44.474 34.1116 46.2145 30.4912 47.0287C26.4953 47.9681 22.331 47.9231 18.3562 46.8975C15.2126 46.0581 12.2763 44.5785 9.73125 42.5512C7.03773 40.4123 4.83763 37.7172 3.28125 34.65Z" fill="#319F43"/>
</g>
<defs>
<clipPath id="clip0_163_38">
<rect width="24" height="24" fill="white" transform="scale(2)"/>
</clipPath>
</defs>
</svg>
